<?xml version="1.0" encoding="utf-8"?>
<!DOCTYPE svg PUBLIC "-//W3C//DTD SVG 1.1//EN" "http://www.w3.org/Graphics/SVG/1.1/DTD/svg11.dtd">
<svg version="1.1" id="Layer_2" xmlns="http://www.w3.org/2000/svg" xmlns:xlink="http://www.w3.org/1999/xlink" x="0px" y="0px" viewBox="0 0 219.667 320.5" enable-background="new 0 0 219.667 320.5" xml:space="preserve">
<path fill="#FFFFFF" d="M52.334,1.5l138.333,138c0,0,27.332,25.333,27.332,71.667c0,44.666-33.665,107.708-106.665,107.708
	C39.209,318.875,2,262.833,2,210.833c0-65,54.833-95.167,54.833-95.167c-3-3.5-4.042-4.792-11.5-12.833
	c-11.878-12.807-18.667-27.406-18.667-49C26.667,21.167,52.334,1.5,52.334,1.5z"/>
<path fill="#BE1E2D" d="M202.562,246.625L50,94.5c0,0-14.667-16.333-14.667-40s16.292-39.25,16.292-39.25l130.709,129.917
	c0,0,26.666,25.334,26.666,61.667C209,232.688,202.562,246.625,202.562,246.625z"/>
<path fill="#9F1D21" d="M53.333,13.167l131,131c0,0,25.667,23.834,25.667,64.167c0,25.416-6.751,39.104-6.751,39.104l-1.75-1.875
	c0,0,4.834-10.646,4.834-33.896c0-36.584-26.584-62.125-26.584-62.125l-131-131.083L53.333,13.167z"/>
<path fill="#F7931E" d="M131.334,211c0,11.414-9.326,20.667-20.832,20.667c-11.506,0-20.834-9.253-20.834-20.667
	c0-6.158,3.026-11.547,7.333-15.333c3.677-3.231,8.562-2.027,13.834-1.5c5,0.5,12.334,4.5,16.834,9.333
	C128.455,204.346,131.334,209.806,131.334,211z"/>
<path fill="#DD7C26" d="M93.208,200c0,0,4.958-9.167,17.625-9.167c10.666,0,20.458,9.083,20.458,20.25c0,5.667-2.125,9-2.125,9
	s0.203-2.869-0.25-7c-0.709-6.458-7.833-17.271-21.167-17.271C96.917,195.812,93.208,200,93.208,200z"/>
<path fill="#000004" d="M156.166,227.167l38.166,38c0,0-24.332,45.333-82.832,45.333S10.333,265.834,10.333,211
	c0-56.167,45.333-83.667,45.333-83.667L93.5,165.167c0,0-32,11.833-32,47c0,35.583,30.333,49.583,46,49.583
	C141.333,261.75,156.166,227.167,156.166,227.167z"/>
<path fill="#2A2841" d="M55.667,127.333l37.792,37.792c0,0-4.042,1.75-7.375,3.792C66.917,149.75,49.5,131.834,49.5,131.834
	S52.583,129.375,55.667,127.333z"/>
<path fill="#2A2841" d="M61.25,212.5c0,17.583,9.316,29.945,17.5,37c7.25,6.25,16.752,10.419,29.917,10.667
	c26.5,0.5,40.833-21.333,40.833-21.333s-12.167,28-42.333,28c-29,0-49.167-23.833-49.167-48.333c0-15.5,7.167-25.667,7.167-25.667
	S61.25,203.5,61.25,212.5z"/>
<polygon fill="#2A2841" points="156.333,227.167 194.5,265.334 190.333,271.251 152.333,234.834 "/>
</svg>
