<?xml version="1.0" encoding="UTF-8" standalone="no"?>
<svg width="13px" height="12px" viewBox="0 0 13 12" version="1.1" xmlns="http://www.w3.org/2000/svg" xmlns:xlink="http://www.w3.org/1999/xlink">
    <!-- Generator: Sketch 39.1 (31720) - http://www.bohemiancoding.com/sketch -->
    <title>Twitter</title>
    <desc>Created with Sketch.</desc>
    <defs></defs>
    <g id="Podcast-w/sponsor" stroke="none" stroke-width="1" fill="none" fill-rule="evenodd">
        <g id="Tablet-Landscape" transform="translate(-56.000000, -1048.000000)" fill="#F7F7F7">
            <g id="body" transform="translate(0.000000, 153.000000)">
                <g id="left-column" transform="translate(46.000000, 30.000000)">
                    <g id="profiles-+-twitter" transform="translate(4.000000, 658.000000)">
                        <g id="right-host">
                            <g id="josh-on-twitter" transform="translate(0.000000, 203.000000)">
                                <g id="blue-tab">
                                    <path d="M17.4681201,6.3881412 C18.0191219,6.05827903 18.4418732,5.53551347 18.64111,4.9124698 C18.1254694,5.21805412 17.5549398,5.44024927 16.9474656,5.55979132 C16.460853,5.04151189 15.7676146,4.71745529 15.0007511,4.71745529 C13.5277186,4.71745529 12.3336175,5.91182023 12.3336175,7.38458884 C12.3336175,7.59358951 12.3571037,7.79704849 12.4024927,7.9923269 C10.1860829,7.88122932 8.22063212,6.81960092 6.90514179,5.20591519 C6.67555772,5.59963867 6.54414063,6.05775125 6.54414063,6.54673893 C6.54414063,7.47193634 7.01491992,8.28814729 7.73058888,8.76657938 C7.29358748,8.75259322 6.88218338,8.63278728 6.52250167,8.43302276 C6.52223778,8.44410612 6.52223778,8.45518949 6.52223778,8.46653675 C6.52223778,9.75854089 7.44162962,10.8365305 8.66185575,11.0819479 C8.43807726,11.1426426 8.20242373,11.1753649 7.95911739,11.1753649 C7.78706128,11.1753649 7.62001908,11.1587398 7.45719911,11.1273369 C7.7968252,12.1871181 8.78166169,12.9582039 9.9485821,12.9798429 C9.03578751,13.6949841 7.88601993,14.1214299 6.63623815,14.1214299 C6.42090413,14.1214299 6.20873678,14.1087632 6,14.0842214 C7.18064267,14.8410572 8.58242494,15.2825447 10.0884437,15.2825447 C14.9944177,15.2825447 17.6768569,11.2183789 17.6768569,7.69386761 C17.6768569,7.57854779 17.6747458,7.46322798 17.669468,7.34896373 C18.1903863,6.97292085 18.6426933,6.50319713 19,5.96802874 C18.5220957,6.18045998 18.0080385,6.32375211 17.4681201,6.3881412 Z" id="Twitter"></path>
                                </g>
                            </g>
                        </g>
                    </g>
                </g>
            </g>
        </g>
    </g>
</svg>